<svg xmlns="http://www.w3.org/2000/svg" fill-rule="evenodd" stroke-linejoin="round" stroke-miterlimit="2" clip-rule="evenodd" viewBox="0 0 100 100"><defs/><path fill="url(#_Linear1)" d="M98 11.6C98 6.3 93.7 2 88.4 2H11.6A9.6 9.6 0 002 11.6v76.8c0 5.3 4.3 9.6 9.6 9.6h76.8c5.3 0 9.6-4.3 9.6-9.6V11.6z"/><path fill="url(#_Linear2)" d="M2 56l13 6 10-18 10 7 10-14 11-15 9 16 10-11 10 7 13-21v76.3a9.6 9.6 0 01-9.6 8.7H11.6A9.6 9.6 0 012 88.4V56z"/><path fill="#fff" fill-rule="nonzero" d="M37 78.8c-4-1.4-7.7-3.4-11-6l9-12.5c5.4 3.9 10.9 5.5 14.3 5.9a7 7 0 004.6-1c.8-.5 1.3-1.7 1.2-2.7 0-1.2-.8-2.2-1.7-2.7-1.9-1.2-9.5-4-9.5-4-9.8-4-14.7-9.9-14.7-17.5a17.4 17.4 0 016.3-14.1 27.8 27.8 0 0117-5.2c4 0 8 .6 11.7 2 3.5 1.5 6.8 3.5 9.8 6l-8.8 11.8c-3.5-2.8-7.6-5-12-5-3.5 0-5.2 1.3-5.2 3.5 0 1.1.8 2.2 1.7 2.7 1.9 1 6.2 2.5 9.3 3.7 3.5 1.4 7.7 3.5 10.8 6.4 2.9 3 4.4 7.2 4.2 11.4 0 5.5-2.4 10.7-6.6 14C63 79.4 56.8 81 48.8 81c-4 0-8-.8-11.8-2.2z"/><defs><linearGradient id="_Linear1" x1="0" x2="1" y1="0" y2="0" gradientTransform="matrix(20 54 -54 20 11 3)" gradientUnits="userSpaceOnUse"><stop offset="0" stop-color="#2979ff"/><stop offset="1" stop-color="#304ffe"/></linearGradient><linearGradient id="_Linear2" x1="0" x2="1" y1="0" y2="0" gradientTransform="matrix(-28 -84 84 -28 96 100)" gradientUnits="userSpaceOnUse"><stop offset="0" stop-color="#2962ff"/><stop offset=".2" stop-color="#7b3bd0"/><stop offset=".4" stop-color="#d1139f"/><stop offset="1" stop-color="#f90088"/></linearGradient></defs></svg>